<svg width="72" height="72" viewBox="0 0 72 72" fill="none" xmlns="http://www.w3.org/2000/svg">
<path d="M42.9553 22.5864C46.8181 19.0967 52.7135 19.0967 56.5764 22.5864L56.9562 22.9477L57.0685 23.061H57.0695L57.0705 23.062L57.4308 23.4409C60.9207 27.3036 60.9208 33.1993 57.4308 37.0619L57.0695 37.4409L37.2844 57.227C37.228 57.2834 37.2281 57.3748 37.2844 57.4311L41.3469 61.4936L41.5139 61.6791C42.2414 62.5712 42.2414 63.8583 41.5139 64.7504L41.3469 64.936C40.4559 65.8267 39.0458 65.8825 38.09 65.103L37.9055 64.936L33.843 60.8725C31.8858 58.9154 31.8858 55.7428 33.843 53.7856L53.6281 33.9994L53.8166 33.8022C55.6967 31.7214 55.6335 28.5088 53.6281 26.5034V26.5024L53.5139 26.3891L53.3166 26.2006C51.2356 24.3207 48.0233 24.3839 46.0178 26.3891L29.7238 42.683C28.7735 43.6331 27.2327 43.6331 26.2824 42.683C25.332 41.7327 25.332 40.1911 26.2824 39.2407L42.5754 22.9477L42.9553 22.5864Z" fill="black"/>
<path d="M42.9553 22.5864C46.8181 19.0967 52.7135 19.0967 56.5764 22.5864L56.9562 22.9477L57.0685 23.061H57.0695L57.0705 23.062L57.4308 23.4409C60.9207 27.3036 60.9208 33.1993 57.4308 37.0619L57.0695 37.4409L37.2844 57.227C37.228 57.2834 37.2281 57.3748 37.2844 57.4311L41.3469 61.4936L41.5139 61.6791C42.2414 62.5712 42.2414 63.8583 41.5139 64.7504L41.3469 64.936C40.4559 65.8267 39.0458 65.8825 38.09 65.103L37.9055 64.936L33.843 60.8725C31.8858 58.9154 31.8858 55.7428 33.843 53.7856L53.6281 33.9994L53.8166 33.8022C55.6967 31.7214 55.6335 28.5088 53.6281 26.5034V26.5024L53.5139 26.3891L53.3166 26.2006C51.2356 24.3207 48.0233 24.3839 46.0178 26.3891L29.7238 42.683C28.7735 43.6331 27.2327 43.6331 26.2824 42.683C25.332 41.7327 25.332 40.1911 26.2824 39.2407L42.5754 22.9477L42.9553 22.5864Z" fill="#32B7FF"/>
<path d="M42.9553 22.5864C46.8181 19.0967 52.7135 19.0967 56.5764 22.5864L56.9562 22.9477L57.0685 23.061H57.0695L57.0705 23.062L57.4308 23.4409C60.9207 27.3036 60.9208 33.1993 57.4308 37.0619L57.0695 37.4409L37.2844 57.227C37.228 57.2834 37.2281 57.3748 37.2844 57.4311L41.3469 61.4936L41.5139 61.6791C42.2414 62.5712 42.2414 63.8583 41.5139 64.7504L41.3469 64.936C40.4559 65.8267 39.0458 65.8825 38.09 65.103L37.9055 64.936L33.843 60.8725C31.8858 58.9154 31.8858 55.7428 33.843 53.7856L53.6281 33.9994L53.8166 33.8022C55.6967 31.7214 55.6335 28.5088 53.6281 26.5034V26.5024L53.5139 26.3891L53.3166 26.2006C51.2356 24.3207 48.0233 24.3839 46.0178 26.3891L29.7238 42.683C28.7735 43.6331 27.2327 43.6331 26.2824 42.683C25.332 41.7327 25.332 40.1911 26.2824 39.2407L42.5754 22.9477L42.9553 22.5864Z" stroke="#32B7FF" stroke-linecap="round"/>
<rect x="20.2706" y="16.969" width="49" height="5" rx="2.5" transform="rotate(45 20.2706 16.969)" fill="black"/>
<rect x="20.2706" y="16.969" width="49" height="5" rx="2.5" transform="rotate(45 20.2706 16.969)" fill="#8F44FC"/>
<rect x="20.2706" y="16.969" width="49" height="5" rx="2.5" transform="rotate(45 20.2706 16.969)" stroke="#8F44FC"/>
<path d="M31.6379 12.0093C35.6088 8.03851 42.047 8.03839 46.0178 12.0093L46.3782 12.3882C49.8683 16.2509 49.8682 22.1465 46.3782 26.0093L46.0178 26.3892L24.1409 48.2652C23.2499 49.1561 21.8399 49.2126 20.884 48.4332L20.6995 48.2662C19.7491 47.3158 19.7491 45.7742 20.6995 44.8238L42.5754 22.9478L42.7639 22.7496C44.5834 20.7358 44.5835 17.6617 42.7639 15.648L42.5754 15.4507C40.5702 13.4455 37.3575 13.3821 35.2766 15.2623L35.0793 15.4507L13.2024 37.3277C12.2521 38.2777 10.7113 38.2778 9.76099 37.3277C8.81059 36.3773 8.81059 34.8357 9.76099 33.8853L31.6379 12.0093Z" fill="black"/>
<path d="M31.6379 12.0093C35.6088 8.03851 42.047 8.03839 46.0178 12.0093L46.3782 12.3882C49.8683 16.2509 49.8682 22.1465 46.3782 26.0093L46.0178 26.3892L24.1409 48.2652C23.2499 49.1561 21.8399 49.2126 20.884 48.4332L20.6995 48.2662C19.7491 47.3158 19.7491 45.7742 20.6995 44.8238L42.5754 22.9478L42.7639 22.7496C44.5834 20.7358 44.5835 17.6617 42.7639 15.648L42.5754 15.4507C40.5702 13.4455 37.3575 13.3821 35.2766 15.2623L35.0793 15.4507L13.2024 37.3277C12.2521 38.2777 10.7113 38.2778 9.76099 37.3277C8.81059 36.3773 8.81059 34.8357 9.76099 33.8853L31.6379 12.0093Z" fill="#D53FEE"/>
<path d="M31.6379 12.0093C35.6088 8.03851 42.047 8.03839 46.0178 12.0093L46.3782 12.3882C49.8683 16.2509 49.8682 22.1465 46.3782 26.0093L46.0178 26.3892L24.1409 48.2652C23.2499 49.1561 21.8399 49.2126 20.884 48.4332L20.6995 48.2662C19.7491 47.3158 19.7491 45.7742 20.6995 44.8238L42.5754 22.9478L42.7639 22.7496C44.5834 20.7358 44.5835 17.6617 42.7639 15.648L42.5754 15.4507C40.5702 13.4455 37.3575 13.3821 35.2766 15.2623L35.0793 15.4507L13.2024 37.3277C12.2521 38.2777 10.7113 38.2778 9.76099 37.3277C8.81059 36.3773 8.81059 34.8357 9.76099 33.8853L31.6379 12.0093Z" stroke="#D53FEE" stroke-linecap="round"/>
<rect x="18.1494" y="14.8476" width="19" height="5" rx="2.5" transform="rotate(45 18.1494 14.8476)" fill="black"/>
<rect x="18.1494" y="14.8476" width="19" height="5" rx="2.5" transform="rotate(45 18.1494 14.8476)" fill="#8F44FC"/>
<rect x="18.1494" y="14.8476" width="19" height="5" rx="2.5" transform="rotate(45 18.1494 14.8476)" stroke="#8F44FC"/>
</svg>
