<svg width="60" height="60" viewBox="0 0 60 60" fill="none" xmlns="http://www.w3.org/2000/svg">
<mask id="mask0_3530_2807" style="mask-type:alpha" maskUnits="userSpaceOnUse" x="6" y="12" width="48" height="36">
<path fill-rule="evenodd" clip-rule="evenodd" d="M16.0411 12C17.868 12 19.5557 12.9873 20.4294 14.5917C23.2116 19.7005 25.4235 24.155 27.1836 28H33.7842C35.4741 23.965 37.4227 19.5323 39.6693 14.7796C40.4747 13.0757 42.1968 12 44.0814 12C46.7979 12 49 14.2021 49 16.9186V28H50C52.2091 28 54 29.7909 54 32C54 34.2091 52.2091 36 50 36H49V44C49 46.2091 47.2091 48 45 48C42.7909 48 41 46.2091 41 44V36H38.0146C36.97 38.711 35.9638 41.4609 35.0883 44.2446C34.3969 46.4427 32.394 48 30.0897 48C27.7028 48 25.6359 46.3373 24.9912 44.0391C24.3591 41.7854 23.442 38.8507 22.2744 36H19V44C19 46.2091 17.2091 48 15 48C12.7909 48 11 46.2091 11 44V36H10C7.79086 36 6 34.2091 6 32C6 29.7909 7.79086 28 10 28H11V17.0411C11 14.257 13.257 12 16.0411 12Z" fill="#32B7FF"/>
</mask>
<g mask="url(#mask0_3530_2807)">
<path d="M41 12H49V48H41V12Z" fill="#0081FA"/>
<rect x="34" y="28" width="20" height="8" fill="black"/>
<rect x="34" y="28" width="20" height="8" fill="#B006D2"/>
<path d="M6.00008 28H19V36H5.99998L6.00008 28Z" fill="black"/>
<path d="M6.00008 28H19V36H5.99998L6.00008 28Z" fill="#0081FA"/>
<path d="M19 12H11V48H19V12Z" fill="#D53FEE"/>
<path d="M34 48H26C26 48 23.4022 36.0243 19 29.6981V12C33.3635 37.7238 34 48 34 48Z" fill="#B006D2"/>
<path d="M19 28H34V36H19V28Z" fill="black"/>
<path d="M19 28H34V36H19V28Z" fill="#0081FA"/>
<path d="M49.0004 12C37.3805 34.1678 34.0101 47.9601 34.0004 48L33.9447 47.5078C33.7735 46.2608 33.098 42.5971 30.558 35.9775C33.1097 29.4467 36.5026 21.2767 41.0004 12H49.0004Z" fill="#32B7FF"/>
</g>
</svg>
